<?xml version="1.0" encoding="UTF-8"?>
<svg width="487px" height="140px" viewBox="0 0 487 140" version="1.1" xmlns="http://www.w3.org/2000/svg" xmlns:xlink="http://www.w3.org/1999/xlink">
    <g id="New" stroke="none" stroke-width="1" fill="none" fill-rule="evenodd">
        <g id="Group-12" transform="translate(1.000000, 1.000000)" stroke-width="2">
            <path d="M0,124.581655 C3.06147476,124.435415 8.20161196,124.264231 15.4204116,124.068105 C21.313086,122.54347 25.2841492,117.111958 27.3336011,107.773568 C29.3830529,98.435179 32.2648444,98.435179 35.9789755,107.773568 C39.6933569,118.707967 43.6639196,124.139479 47.8906639,124.068105 C51.109194,123.829788 53.4631741,123.448629 54.9526042,122.924629 C56.777522,122.352798 58.5547185,123.091293 60.2841936,125.140114 C63.5822801,128.403693 65.3915618,127.069637 65.7120388,121.137947 L68.8342506,10.8639558 C69.1554782,3.62131861 69.7959319,0 70.7556117,0 C71.8159307,0 72.4401228,3.43064618 72.6281883,10.2919385 L75.3672537,127.784403 C75.3685046,134.455053 76.2651397,137.504323 78.0571592,136.932213 C79.8491787,136.360103 80.8417569,134.835468 81.0348937,132.358308 C81.484212,129.309038 83.0853463,127.784403 85.8382965,127.784403 C88.5912467,127.784403 94.3118145,127.384351 103,126.584247" id="Path" stroke="#252626"></path>
            <path d="M280,126.776119 C284.654489,126.93341 288.413233,122.028572 291.276232,112.061604 C295.570731,97.1111537 299.683804,78.0431858 305.991349,78.0431858 C310.196379,78.0431858 315.037962,92.6225081 320.516098,121.781153 C322.045517,129.976066 326.441413,133.501784 333.703787,132.358308 C340.966162,131.214832 354.535086,128.451431 374.41056,124.068105 C380.271922,122.54347 384.221883,117.111958 386.260444,107.773568 C388.299005,98.435179 391.165483,98.435179 394.859878,107.773568 C398.554521,118.707967 402.503985,124.139479 406.708268,124.068105 C409.909695,123.829788 412.251167,123.448629 413.732682,122.924629 C415.547902,122.352798 417.315655,123.091293 419.03594,125.140114 C422.3165,128.403693 424.116168,127.069637 424.434942,121.137947 L427.540562,10.8639558 C427.860083,3.62131861 428.497133,0 429.451714,0 C430.506398,0 431.127273,3.43064618 431.314339,10.2919385 L434.03885,127.784403 C434.040094,134.455053 434.931964,137.504323 436.714461,136.932213 C438.496958,136.360103 439.484262,134.835468 439.676372,132.358308 C440.123303,129.309038 441.715929,127.784403 444.45425,127.784403 C447.192571,127.784403 453.122665,127.448308 462.244532,126.776119 L485,126.311981" id="Path" stroke="url(#linearGradient-1)"></path>
            <path d="M100,126.640927 C104.44695,127.974982 108.194924,123.115208 111.243921,112.061604 C115.817416,95.4811987 119.627174,78.0431858 125.916474,78.0431858 C130.109341,78.0431858 134.93692,92.6225081 140.39921,121.781153 C141.924205,129.976066 146.307386,133.501784 153.548754,132.358308 C160.790122,131.214832 174.319798,128.451431 194.137782,124.068105 C199.982189,122.54347 203.920725,117.111958 205.95339,107.773568 C207.986054,98.435179 210.844241,98.435179 214.527949,107.773568 C218.211906,118.707967 222.149945,124.139479 226.342068,124.068105 C229.534235,123.829788 231.868934,123.448629 233.346164,122.924629 C235.156133,122.352798 236.918773,123.091293 238.634082,125.140114 C241.905153,128.403693 243.699615,127.069637 244.017467,121.137947 L247.114105,10.8639558 C247.432701,3.62131861 248.067909,0 249.019728,0 C250.071361,0 250.690441,3.43064618 250.876966,10.2919385 L253.593595,127.784403 C253.594836,134.455053 254.484127,137.504323 256.261468,136.932213 C258.038809,136.360103 259.023257,134.835468 259.214811,132.358308 C259.660449,129.309038 261.248469,127.784403 263.978869,127.784403 C266.70927,127.784403 272.38298,127.384351 281,126.584247" id="Path" stroke="#252626"></path>
        </g>
    </g>
</svg>